<svg id="visual" viewBox="0 0 900 600" width="900" height="600" xmlns="http://www.w3.org/2000/svg" xmlns:xlink="http://www.w3.org/1999/xlink" version="1.1"><rect width="900" height="600" fill="#070436"></rect><g><g transform="translate(159 518)"><path d="M105.2 -37.8C119.2 9 101.7 62.4 64.7 89.3C27.8 116.2 -28.6 116.6 -70 88.5C-111.3 60.3 -137.6 3.5 -123.4 -43.5C-109.3 -90.6 -54.6 -127.9 -4.5 -126.4C45.6 -125 91.1 -84.7 105.2 -37.8Z" stroke="#241ace" fill="none" stroke-width="20"></path></g><g transform="translate(860 242)"><path d="M84.9 -28C94.1 0.7 74.6 38.3 46.5 57.1C18.3 76 -18.5 76 -44.3 58C-70.1 39.9 -84.8 3.8 -75.6 -25C-66.4 -53.7 -33.2 -75.1 2.3 -75.8C37.9 -76.6 75.8 -56.8 84.9 -28Z" stroke="#241ace" fill="none" stroke-width="20"></path></g><g transform="translate(433 202)"><path d="M70.7 -25.7C80.3 6.7 69.1 43.1 44.4 61C19.7 79 -18.4 78.4 -45.7 59.4C-73 40.4 -89.4 3 -80 -29.1C-70.5 -61.1 -35.3 -87.9 -2.4 -87.1C30.5 -86.4 61.1 -58.1 70.7 -25.7Z" stroke="#241ace" fill="none" stroke-width="20"></path></g><g transform="translate(97 20)"><path d="M60.4 -20.8C69.4 8.2 61.8 41.3 41.2 56.2C20.6 71 -12.9 67.5 -34.5 51C-56 34.5 -65.5 5 -57.8 -22.2C-50 -49.4 -25 -74.4 0.3 -74.5C25.7 -74.6 51.4 -49.8 60.4 -20.8Z" stroke="#241ace" fill="none" stroke-width="20"></path></g><g transform="translate(621 549)"><path d="M73.7 -25C83.2 5.1 69.9 41.5 42.7 62C15.5 82.5 -25.6 87.1 -48.6 69.7C-71.6 52.3 -76.5 12.9 -65.4 -19.4C-54.3 -51.7 -27.1 -77 2.5 -77.8C32.1 -78.7 64.3 -55 73.7 -25Z" stroke="#241ace" fill="none" stroke-width="20"></path></g></g></svg>