<svg xmlns="http://www.w3.org/2000/svg" xmlns:xlink="http://www.w3.org/1999/xlink" width="25" height="25" viewBox="0 0 25 25"><defs><linearGradient id="a"><stop offset="0" stop-color="#24f7bc"/><stop offset="1" stop-color="#24c4fc"/></linearGradient><linearGradient id="b" x1="949.87" x2="974.39" y1="518.014" y2="544.657" gradientTransform="translate(-761.471 618.335) scale(.80097)" gradientUnits="userSpaceOnUse" xlink:href="#a"/></defs><g fill="#fff" transform="translate(4.984 -1031.386)"><rect width="25" height="25" x="-3.996" y="1031.366" fill="url(#b)" rx="5.283" ry="5.283" transform="translate(-.988 .02)"/><path d="m 13.007812,3.0234375 c -1.098646,0 -1.999999,0.9013 -2,2 0,0.2189381 0.04531,0.4253464 0.111329,0.6230469 L 8.7460938,7.0117188 5.9921875,4.0625 l -5.96875,-0.058594 0,0.00195 6.96875,4.0175781 -6.9609375,4.0078129 5.9140625,0 2.8027344,-2.9980473 2.3691411,1.3671883 c -0.06553,0.197039 -0.109375,0.404944 -0.109376,0.623047 0,1.0986 0.901354,2 2,2 1.098649,0 2,-0.9014 2,-2 0,-1.0987009 -0.901351,-2.0000009 -2,-2.0000009 -0.519665,0 -0.990781,0.2063451 -1.347656,0.5351563 L 9.0214844,8.0371094 9.0078125,8.0234375 9.0292969,8.0039062 11.660156,6.4902344 c 0.35675,0.3282187 0.82853,0.5332031 1.347656,0.5332031 1.098649,0 2,-0.9014 2,-2 0,-1.0987 -0.901351,-2 -2,-2 z m 0,1 c 0.558209,0 1.000001,0.4418 1,1 0,0.5582 -0.441791,1 -1,1 -0.558206,0 -1,-0.4418 -1,-1 0,-0.5582 0.441793,-1 1,-1 z M 3.8222656,5.0410156 5.5546875,5.0585938 7.5371094,7.1816406 3.8222656,5.0410156 Z m 3.71875,3.8203125 -2.0292968,2.1699219 -1.7402344,0 3.7695312,-2.1699219 z m 5.4667964,1.1621099 c 0.558209,0 1.000001,0.4418 1,1 0,0.558199 -0.441791,1 -1,1 -0.558206,0 -1,-0.441801 -1,-1 0,-0.5582 0.441793,-1 1,-1 z" color="#000" font-family="sans-serif" font-weight="400" overflow="visible" transform="translate(0 1036.362)" style="line-height:normal;text-indent:0;text-align:start;text-decoration-line:none;text-decoration-style:solid;text-decoration-color:#000;text-transform:none;block-progression:tb;isolation:auto;mix-blend-mode:normal"/></g></svg>